                                               0                                
                                               0111                             
                                               10101                            
                                               00111                            
                                              0001100                           
                       01                     11110101           100            
                       101                    000 0011           011            
                        01                   1011  1111          101            
                                             111   1011          010            
                       1001                 0111    0101         110101         
                       1100             01010100111000100 00     1011111        
                       1111         00010  0110  1101010100      11 0010        
                       0011        1011    1001     111000       10 1010        
                       1110      1011     1111         101       11  011        
                       0110     001       100           001      00  11         
                       1101     01       1111            10      11  00         
                        111    01        011             110      0  00         
                        11     0        100                11     1  00         
                        10     0       100                  0        110        
                        01     00    1000                    1        01        
                        11       1100111                     00       01        
     001100000000110   000                                            101       
    0                  01                                              00       
    10               100                                                10      
          000011000                                                      10     
                                                                                


                                      Proudly Canadian



Call Me Fitz | s02 e09 | Repo Wedding

This episode first aired on HBO Canada on 13 November 2011.

This isn\'t the first time Fitz has been brought in for questioning … it is, however, the first time he’s been innocent of the charges.  It\'s Fitz versus his nemesis Chester Vince. And vengeance is one of Fitz\' favourite games. Dot sides with Chester and convinces him to help her with her plan. 


Cast
Jason Priestley  ... Richard \"Fitz\" Fitzpatrick
Ernie Grunwald   ... Larry, Fitz\' conscience
Tracy Dawson     ... Meghan Fitzpatrick, Fitz\' sister
Donavon Stinson  ... Josh McTaggert, the dealership mechanic
Jonathan Torrens ... Chester Vince, the prosecutor
Kathleen Munro   ... Ali Devon, defence lawyer and one of Fitz\' recurring hook-ups
Amy Sloan        ... Dot Foxley, the dealership office manager


Complete name                    : Call.Me.Fitz.s02e09.Repo.Wedding.WS.XviD.jAh.avi
Format                           : AVI
Format/Info                      : Audio Video Interleave
File size                        : 233 MiB
Duration                         : 24mn 51s
Overall bit rate mode            : Variable
Overall bit rate                 : 1 311 Kbps
Writing application              : VirtualDubMod 1.5.4.1 (build 2178/release)
Writing library                  : VirtualDubMod build 2178/release

Video
ID                               : 0
Format                           : MPEG-4 Visual
Format profile                   : Simple@L3
Format settings, BVOP            : No
Format settings, QPel            : No
Format settings, GMC             : No warppoints
Format settings, Matrix          : Default (H.263)
Codec ID                         : XVID
Codec ID/Hint                    : XviD
Duration                         : 24mn 50s
Bit rate                         : 1 190 Kbps
Width                            : 624 pixels
Height                           : 352 pixels
Display aspect ratio             : 16:9
Frame rate                       : 23.976 fps
Color space                      : YUV
Chroma subsampling               : 4:2:0
Bit depth                        : 8 bits
Scan type                        : Progressive
Compression mode                 : Lossy
Bits/(Pixel*Frame)               : 0.226
Stream size                      : 211 MiB (91%)
Writing library                  : XviD 1.2.1 (UTC 2008-12-04)

Audio
ID                               : 1
Format                           : MPEG Audio
Format version                   : Version 1
Format profile                   : Layer 3
Mode                             : Joint stereo
Mode extension                   : MS Stereo
Codec ID                         : 55
Codec ID/Hint                    : MP3
Duration                         : 24mn 51s
Bit rate mode                    : Variable
Bit rate                         : 109 Kbps
Nominal bit rate                 : 128 Kbps
Channel(s)                       : 2 channels
Sampling rate                    : 48.0 KHz
Compression mode                 : Lossy
Stream size                      : 19.3 MiB (8%)
Alignment                        : Aligned on interleaves
Interleave, duration             : 24 ms (0.58 video frame)
Interleave, preload duration     : 547 ms
Writing library                  : LAME3.98r
Encoding settings                : -m j -V 4 -q 2 -lowpass 17 --abr 128

